<?xml version="1.0" encoding="UTF-8"?>
<svg id="Capa_1" xmlns="http://www.w3.org/2000/svg" xmlns:xlink="http://www.w3.org/1999/xlink" version="1.1" viewBox="0 0 2834.6 2834.6">
  <!-- Generator: Adobe Illustrator 29.0.1, SVG Export Plug-In . SVG Version: 2.1.0 Build 192)  -->
  <defs>
    <style>
      .st0 {
        fill: url(#Plantas_decorativas_5);
      }

      .st1 {
        fill: url(#Plantas_decorativas_51);
      }

      .st2 {
        fill: #211e1e;
      }
    </style>
    <linearGradient id="Plantas_decorativas_5" data-name="Plantas decorativas 5" x1="70.9" y1="935.8" x2="2148.3" y2="771.8" gradientUnits="userSpaceOnUse">
      <stop offset="0" stop-color="#c6c773"/>
      <stop offset=".5" stop-color="#a2ad20"/>
      <stop offset="1" stop-color="#82901d"/>
    </linearGradient>
    <linearGradient id="Plantas_decorativas_51" data-name="Plantas decorativas 5" x1="74" y1="974.7" x2="2151.4" y2="810.7" xlink:href="#Plantas_decorativas_5"/>
  </defs>
  <path class="st0" d="M1351.9,1089.4c-21.9,8.8-40.5,12.9-57.1,12.9-66.3,0-118.2-43.1-135.3-112.4-7.6-30.3-7.6-62.4,0-92.8,17.2-69.2,69-112.2,135.3-112.2s35.3,4.2,57.1,12.9v-117.8c-.1,0-70.8.2-70.8.2-10.4,0-19.3-5.8-25.5-14.2-18.5-24.5-6-39.9-1.2-49.2,9.9-19.6,19-41.8,19-57,0-41.3-27.2-64.9-64.5-74.1-20.4-5.1-41.9-5.1-62.3,0-37.2,9.2-64.5,32.8-64.5,74.1s9.1,37.3,19,57c4.8,9.3,17.3,24.7-1.2,49.2-6.3,8.3-15.1,14.2-25.5,14.2h-105.4c-11.9-.1-23.3,4.6-31.7,13-8.4,8.4-13.1,19.8-13.1,31.7l.2,115.3c0,10.4-5.9,19.3-14.2,25.5-24.5,18.5-39.9,6-49.1,1.2-19.7-9.9-41.9-19-57-19-41.4,0-64.9,27.2-74.2,64.5-5,20.4-5,41.9,0,62.3,9.3,37.3,32.8,64.5,74.2,64.5s37.3-9.1,57-19c9.2-4.7,24.6-17.3,49.1,1.2,8.3,6.3,14.2,15.1,14.2,25.5l-.2,109.9c0,11.9,4.7,23.3,13.1,31.7,8.4,8.4,19.7,13.1,31.6,13.1h202.3c0,.1,180.4-.2,180.4-.2v-112.1Z"/>
  <path class="st1" d="M1414.9,1201.4l.2-154.5c0-10.4-5.8-19.2-14.2-25.5-24.5-18.5-39.9-5.9-49.2-1.2-19.6,9.9-41.8,19-57,19-41.3,0-64.9-27.2-74.1-64.5-5.1-20.4-5.1-41.9,0-62.3,9.2-37.2,32.8-64.5,74.1-64.5s37.3,9.1,57,19c9.3,4.8,24.7,17.3,49.2-1.2,8.3-6.2,14.2-15.1,14.2-25.5l-.2-160.2,132.8.2c10.4,0,19.3-5.8,25.5-14.2,18.5-24.5,6-39.9,1.2-49.2-9.9-19.6-19-41.8-19-57,0-41.3,27.2-64.9,64.5-74.1,20.4-5.1,41.9-5.1,62.3,0,37.2,9.2,64.5,32.8,64.5,74.1s-9.1,37.3-19,57c-4.8,9.3-17.3,24.7,1.2,49.2,6.3,8.3,15.1,14.2,25.5,14.2h111.2c11.9-.1,23.3,4.6,31.7,13,8.4,8.4,13.1,19.8,13.1,31.7v109.8c-.1,10.4,5.7,19.3,14.1,25.5,24.5,18.5,39.9,6,49.2,1.2,19.6-9.9,41.8-19,57-19,41.3,0,64.9,27.2,74.1,64.5,5.1,20.4,5.1,41.9,0,62.3-9.2,37.2-32.8,64.5-74.1,64.5s-37.3-9.1-57-19c-9.3-4.8-24.7-17.3-49.2,1.2-8.3,6.2-14.2,15.1-14.2,25.5v115.5c.1,11.9-4.6,23.2-13,31.7-8.4,8.4-19.8,13.1-31.7,13.1h-107c-10.4.1-19.2-5.7-25.5-14.1-18.5-24.4-5.9-39.8-1.2-49.1,9.9-19.6,19-41.8,19-57,0-41.3-27.2-64.9-64.5-74.1-20.4-5.1-41.9-5.1-62.3,0-37.2,9.2-64.5,32.8-64.5,74.1s9.1,37.3,19,57c4.8,9.3,17.3,24.7-1.1,49.1-.7.9-1.4,1.7-2.1,2.5-6.4,7.5-15.7,11.7-25.5,11.7l-135.1-.2v-.2Z"/>
  <g>
    <g>
      <path class="st2" d="M1476.6,2244.7l-36.2-33.6c-2.8,13-8.6,25.5-17.3,37.2l-33.4,44.5,24.4,21.2c25.9,22.7,52,11.8,66.5-4.4,13.9-15.5,21.5-41.5-2.5-63.5l-1.5-1.4Z"/>
      <path class="st2" d="M1380,2155.4c-12.3-11.7-28.5-17.8-43.2-16.5h0c-13,1.1-24.2,7.9-33.2,20.1-1,1.3-2.1,2.5-3.5,3.7l-78.2,103c-24.5,33.9-11,62.2,8,76.1,21.4,15.7,53.8,17,78-15.6l78.9-105.1c19-25.7,9-50.8-6.8-65.7Z"/>
      <path class="st2" d="M1136.5,1937.6c-11.4-8.5-24.9-13.1-38-13.1s-33.1,8.4-44.8,24.3l-120.7,162.9c-16,21.6-20.1,44.3-11.6,63.9,8.1,18.6,26.5,32.1,47,34.4,22.3,2.6,43.6-8.2,60.1-30.4l120.7-162.9c23-31,10.2-62-12.8-79Z"/>
      <path class="st2" d="M927.5,2041.5h0c1.2-1.6,2.6-3,4.4-4.3l59.3-80.1c.5-1,1.1-2,1.8-3,15.1-20.3,12.3-38.4,7.3-50-8.8-20.3-30.6-36.3-53.2-38.9-2-.2-4.1-.4-6.3-.4-12.7,0-28.7,4.6-42,22.6l-63.8,88.3c-15.1,20.4-19,41.8-11,60.5,7.9,18.3,26.1,31.6,46.3,33.9,21.4,2.5,41.7-7.7,57.2-28.6Z"/>
      <path class="st2" d="M1259,2048.8h0c-23.6-17.8-59.6-23-82.7,7.4l-.4.4-102.5,138.3-.3.4c-25.5,34.3-14.1,66.6,8.4,83.3,22.9,17.1,59.7,19.2,86.2-16.4l17.3-22.8c.2-.3.4-.5.5-.7.1-.2.2-.4.4-.5l87.2-114.9c29-39-6.7-68.9-14.2-74.6Z"/>
      <path class="st2" d="M1923.1,1989.7h0s-21.3-18.5-21.3-18.5l-11.7-10.6-308.3-294.1c-44.5,29.1-121.7,36.2-170.3,24.8-39.4,62.7-87.8,128.3-162.6,128.3s-56.2-8.5-88-26.1c-22.9-12.7-31.7-40.9-20-64.3l56.9-113c30.9-68.7,73.9-145.3,157.1-195.5-12.2-2.5-24.7-4.4-37.4-5.8-40.8-4.6-94.9,20.6-147.1,45-29.3,13.7-59.5,27.8-88.9,37.6-6.7,2.2-14.3,1.2-20.1-2.9l-54.2-37.9-272.4,325.4,112.8,98.9,14.7-20.3c22.1-29.7,54.9-44.4,90.1-40.4,38.4,4.4,74.4,30.9,89.5,65.9,1.3,2.9,2.4,5.9,3.3,8.9,40.1-26.6,87.6-16.6,118.3,6.1,29.3,21.7,45.4,55.1,43,88.5,27.2-3.2,55.8,4.9,79.7,22.8,27.4,20.6,43.6,51.3,43.4,81.6,1.1-.1,2.2-.3,3.3-.4,26-2.3,53.1,7,74.6,25.6,1.4.8,2.7,1.8,3.7,2.8l96.9,89.9,49,43c28.7,24.5,60.4,13.3,78.9-3.7,18.2-16.8,30.2-45.8,13.8-70.2l-22.5-21.1c-.4-.4-.8-.7-1.1-1.1-1.7-1.8-3.5-3.5-5.3-5-.4-.3-.7-.6-1.1-.9l-175.8-165.4c-9.1-8.6-9.5-22.9-1-32,4.1-4.4,9.7-6.9,15.8-7.1,6.1-.2,11.8,2,16.2,6.1l175.4,165c2.7,2.3,5.8,5.2,8.5,8.1l23.8,22.3c.1,0,.3.3.4.5l17.9,16.8c29.9,25.4,61.8,15.3,79.9-1,18-16.2,29-43.5,13.5-68.4l-20.7-17.6c-.8-.7-1.5-1.4-2.2-2.1l-239.8-223.4c-9.1-8.5-9.6-22.9-1.1-32,8.5-9.1,22.9-9.6,32-1.1l241,224.5c.3.3.6.6.9.9l35.4,30.1c18.2,15.6,39.5,20.2,59.9,13,22.1-7.8,39.6-27.6,43.7-49.4,2.5-13.1.9-32.7-20.6-51.1Z"/>
      <path class="st2" d="M1238.7,1635.4l-.4.9-57.1,113.3c-.8,1.5-.1,3.4,1.5,4.3,88,48.6,132.6,8,199.4-101.2,5.8-9.5,17.6-13.4,27.9-9.1,36.7,15,123,7.4,152.9-19.3,1-1.8,2.2-3.3,3.5-4.6,4.4-4.4,10.2-6.5,15.9-6.5s11.7,2.2,16.1,6.7l.6.6,321.9,307.1,7,6.3,173-151.6-272.4-325.5-54.1,37.9h0c-5.8,4.1-13.4,5.2-20.2,2.9-29.4-9.8-59.6-23.9-88.8-37.6-52.5-24.5-106.4-49.7-147.2-45.1-33.4,3.7-64.5,11-92.4,21.5-3.5,1.3-6.9,2.6-10.2,4-97,40.9-143.9,121.5-176.9,195Z"/>
    </g>
    <path class="st2" d="M1978.6,1263.2l-111.6,98.9c-18.6,16.5-20.7,44.7-4.7,63.7l277.1,331.2c8,9.5,19.4,15.4,31.8,16.3,12.4.9,24.6-3.2,33.8-11.4l108.8-96.6-335.2-402.2ZM2180.7,1684.1c-18.3,0-33.2-14.9-33.2-33.2s14.9-33.2,33.2-33.2,33.2,14.9,33.2,33.2-14.9,33.2-33.2,33.2Z"/>
    <path class="st2" d="M967.6,1362.2l-111.6-98.9-335.2,402.2,108.8,96.6c9.3,8.2,21.5,12.3,33.8,11.4,12.4-.9,23.8-6.8,31.8-16.3l277.1-331.2c15.9-19,13.8-47.3-4.7-63.7ZM653.9,1684.1c-18.3,0-33.2-14.9-33.2-33.2s14.9-33.2,33.2-33.2,33.2,14.9,33.2,33.2-14.9,33.2-33.2,33.2Z"/>
  </g>
</svg>