<?xml version="1.0" encoding="UTF-8"?>
<svg id="Capa_1" xmlns="http://www.w3.org/2000/svg" xmlns:xlink="http://www.w3.org/1999/xlink" version="1.1" viewBox="0 0 2834.6 2834.6">
  <!-- Generator: Adobe Illustrator 29.0.1, SVG Export Plug-In . SVG Version: 2.1.0 Build 192)  -->
  <defs>
    <style>
      .st0 {
        fill: url(#Plantas_decorativas_5);
      }

      .st1 {
        fill: #211e1e;
      }
    </style>
    <linearGradient id="Plantas_decorativas_5" data-name="Plantas decorativas 5" x1="235.3" y1="991.4" x2="2567.8" y2="845.6" gradientUnits="userSpaceOnUse">
      <stop offset="0" stop-color="#c6c773"/>
      <stop offset=".5" stop-color="#a2ad20"/>
      <stop offset="1" stop-color="#82901d"/>
    </linearGradient>
  </defs>
  <g>
    <path class="st1" d="M2157.8,1899.6l-109.5-473.3c-5-21.4,7.7-43,28.3-48.2l119.5-30c5.7-1.4,11.4,2.2,12.8,8.2l122.4,529.4c1.4,5.9-2.1,11.9-7.8,13.3l-119.5,30c-20.6,5.2-41.3-8-46.2-29.5Z"/>
    <g>
      <path class="st1" d="M954.8,1961.2c-8.3-7-18.2-10.8-28.6-10.8s-3.7.1-5.6.4c-12.6,1.6-23.9,8.6-31.7,19.7l-62.2,87.6c-16.5,23.2-12.6,58,8.5,76,9.8,8.3,21.9,12,34.2,10.4,12.6-1.6,23.9-8.6,31.7-19.7l62.2-87.6c16.5-23.2,12.6-58-8.5-76Z"/>
      <path class="st1" d="M1269.6,2133.7c11.9-22.9,7-53.3-12.3-69.7-8.3-7-18.2-10.8-28.5-10.8s-3.7.1-5.6.4c-12.6,1.6-23.9,8.6-31.7,19.7l-99,139.5c-16.5,23.2-12.6,58,8.5,76,9.8,8.3,21.9,12,34.2,10.4,12.6-1.6,23.9-8.6,31.7-19.7l23.8-33.5c2.1-3.9,4.3-7.7,6.9-11.3l67.9-95.6c1.3-1.9,2.8-3.6,4.2-5.4Z"/>
      <path class="st1" d="M1142.8,1961.6c-8.3-7-18.2-10.8-28.6-10.8s-3.7.1-5.6.4c-12.6,1.6-23.9,8.6-31.7,19.7l-132.3,186.3c-16.5,23.2-12.6,58,8.5,76,9.8,8.3,21.9,12,34.2,10.4,12.6-1.6,23.9-8.6,31.7-19.7l132.3-186.3c16.5-23.2,12.6-58-8.5-76Z"/>
      <path class="st1" d="M1373.5,2162.3c-8.3-7-18.2-10.8-28.6-10.8s-3.7.1-5.6.4c-10.4,1.4-19.8,6.4-27.2,14.3-1.3,2.1-2.6,4.3-4.1,6.4l-73.1,103c-10.6,22.6-5.4,51.8,13.3,67.7,9.8,8.3,21.9,12,34.2,10.4,12.6-1.6,23.9-8.6,31.7-19.7h0s67.9-95.6,67.9-95.6c16.5-23.2,12.6-58-8.5-76Z"/>
    </g>
    <path class="st1" d="M1733.3,1420.3c-78.4-17-152.4-33.1-210.9-20.6-36.9,7.8-201.1,95.5-235.8,174.1l-62.1,185.4c-1.7,5.1-.3,9.3.7,11.3.8,1.7,2.8,4.9,6.5,6.1,41.5,13.9,77.5,1.1,107.2-38,24-34.9,41.6-65.4,52.1-83.7,4.3-7.4,7.3-12.7,9.7-16.3,7.3-11.3,18.9-18.5,31.8-19.6l74.3-6.6c14.7-1.3,29.5,3,41.6,12l393.1,292.4c.5.4,1,.8,1.6,1.2,11.2,9.7,20,20.1,26.8,30.2,3.4,5,8.8,8.1,14.7,8.4,44.3,2.2,69.8-10.7,108.5-30.4,3.1-1.6,6.2-3.2,9.5-4.8,4-2,6.2-6.8,5.1-11.3l-108.5-463.7c-1.2-5.3-6.4-8.6-11.5-7.3-77.2,19.5-167.1,0-254.4-18.9Z"/>
  </g>
  <g>
    <path class="st1" d="M676.9,1916.6l109.5-473.3c5-21.4-7.7-43-28.3-48.2l-119.5-30c-5.7-1.4-11.4,2.2-12.8,8.2l-122.4,529.4c-1.4,5.9,2.1,11.9,7.8,13.3l119.5,30c20.6,5.2,41.3-8,46.2-29.5Z"/>
    <path class="st1" d="M1517.2,2310.7c6.7-9.6,9.3-21.2,7.3-32.6-2.1-11.8-8.7-22-18.6-28.8h0l-66-45.2c.2,22.3-6.1,44.8-19.6,63.8l-15.3,21.5,54.3,37.2c20.1,8.8,45.1,2.5,57.9-15.8Z"/>
    <path class="st1" d="M1610,2253.6l-200.9-132.1c-.4-.3-.8-.8-1.2-1.1-21.4-17.4-47.2-25.7-73.9-22.3-1.6.2-3.1.6-4.6.8-2.1-29.2-14.8-57.4-37.7-76.8-21-17.9-47.2-25.8-73.9-22.3-.9.1-1.8.4-2.7.5-1.2-30.5-14.1-60.4-37.9-80.6-21-17.9-47.2-25.8-73.9-22.3-27,3.5-51,18.2-67.4,41.4l-10.6,14.9c-2.6,3.7-8,3.2-10.1-.9-6.3-12.7-15-24.1-26-33.5-21-17.9-47.3-25.8-73.9-22.3-27,3.5-51,18.3-67.5,41.5l-34.5,48.6c-3.3.5-5.1.8-8.4,1.2-22-17.6-44.7-35.3-71.1-47.5-4.2-1.9-6.5-6.8-5.4-11.5,5.5-23.4,26.5-113.2,106.8-456.4.6-2.6,2.2-4.8,4.3-6.1,2.2-1.4,4.8-1.8,7.2-1.2,45.4,11.6,100,18.1,157,18.1,81.7,0,168.1-13.5,238.5-44.8,72.5-32.3,113.1-48.4,154.1-50.7,6.3-.4,8.8,8.3,3.4,11.6-63.9,38.4-134,93.4-159.7,151.8,0,.2-.2.5-.4.8,0,0,0,.1,0,.2,0,.2-.2.5-.3.8-.2.4-.4.8-.5,1.3l-62.6,186.8c-5.9,17.6-4.7,37.2,3.2,53.8,7.8,16.3,21.1,28.4,37.5,33.8,36.4,12.1,106.3,21,164.8-56.7.2-.3.5-.6.7-1,25.4-36.9,43.8-68.8,54.8-87.9,1.5-2.7,3-5.2,4.2-7.4,1-1.7,2.7-2.8,4.6-2.9l66.4-5.9c2.3-.2,4.5.5,6.5,2l376.2,279.8,16,11.9c61.2,47.5-14.1,137.3-75.6,88.7-5.1-3.7-26.6-19.3-32.1-23.3-87.1-63.2-219.3-159.4-221.2-160.6-12-8.5-28.3-5.6-36.6,6.8-8.3,12.4-5.5,29.6,6.5,38.1,1.8,1.2,128.9,93.8,216.1,157,5.5,4,10.8,7.9,16,11.6,44.1,34.7-13.6,115.8-66.7,78.3l-15.9-11.7-207.7-152.2c-11.9-8.7-28.2-5.7-36.6,6.7-8.4,12.3-5.5,29.4,6.3,38.1l202.8,148.7c43.7,32.4-7.2,99.3-56.6,66.4Z"/>
  </g>
  <path class="st0" d="M1867.4,626c-36.6-.2-70.4-1.8-102.9-5.3-19.8-2.2-39.1-5.1-58.2-9-1-.2-1.9-.3-2.9-.5-8.4-1.7-16.7-3.6-25.1-5.7-10.1-2.5-20.1-5.3-30.2-8.5-14.9-4.6-29.8-9.8-45-15.8-22.1-8.7-44.7-19-68.2-31-20.5-10.5-41.8-22.3-64-35.7-15.6-9.4-31.8-19.5-48.5-30.4l-5-3.3-5,3.3c-9.8,6.4-19.3,12.5-28.7,18.3-18.1,11.3-35.5,21.5-52.4,31-27.6,15.4-53.8,28.3-79.1,39.3-33.6,14.5-65.8,25.4-98,33.4-1.4.3-2.7.7-4,1-.8.2-1.6.4-2.4.6-56.7,13.4-114,18.2-180.4,18.5h-9v465.4c0,17.3.7,33.7,3.1,49.4,3,19.9,8.1,38.6,15,56.1,29.8,76.2,92.9,131.1,163.5,174.7,25.4-5.9,49-13.4,69.9-22.5,75.6-32.9,125.6-53.1,182.1-56.2h2.3c0-.1,2.6-.1,2.6-.1,25.2-.1,48.5,11,64.5,28.7,18.8-8.2,34.4-13.6,44.6-15.7,19.5-4.1,40.1-6,62.9-6,57.9,0,118,12.8,181.6,26.3,2.4.5,4.8,1,7.2,1.5,2.4-1.9,4.8-3.8,7.1-5.7,66.4-56.1,114.1-128.9,111.9-230.4v-465.4h-9ZM1410.6,1153.2l-186.2-170.1,69.4-75.9,105.1,96,209.2-261.2,80.3,64.3-277.8,346.9Z"/>
</svg>