<?xml version="1.0" encoding="UTF-8"?>
<svg id="Capa_1" xmlns="http://www.w3.org/2000/svg" xmlns:xlink="http://www.w3.org/1999/xlink" version="1.1" viewBox="0 0 2834.6 613">
  <!-- Generator: Adobe Illustrator 29.0.1, SVG Export Plug-In . SVG Version: 2.1.0 Build 192)  -->
  <defs>
    <style>
      .st0 {
        fill: #10110f;
      }

      .st1 {
        fill: url(#Plantas_decorativas_5);
      }

      .st2 {
        fill: #feefdf;
      }

      .st3 {
        fill: #fff;
      }

      .st4 {
        fill: url(#Plantas_decorativas_56);
      }

      .st5 {
        fill: url(#Plantas_decorativas_53);
      }

      .st6 {
        fill: url(#Plantas_decorativas_54);
      }

      .st7 {
        fill: url(#Plantas_decorativas_51);
      }

      .st8 {
        fill: url(#Plantas_decorativas_57);
      }

      .st9 {
        fill: url(#Plantas_decorativas_55);
      }

      .st10 {
        fill: url(#Plantas_decorativas_52);
      }
    </style>
    <linearGradient id="Plantas_decorativas_5" data-name="Plantas decorativas 5" x1="126.5" y1="314.6" x2="459.1" y2="314.6" gradientUnits="userSpaceOnUse">
      <stop offset="0" stop-color="#c6c773"/>
      <stop offset=".5" stop-color="#a2ad20"/>
      <stop offset="1" stop-color="#82901d"/>
    </linearGradient>
    <linearGradient id="Plantas_decorativas_51" data-name="Plantas decorativas 5" x1="316.3" y1="424.6" x2="422" y2="424.6" xlink:href="#Plantas_decorativas_5"/>
    <linearGradient id="Plantas_decorativas_52" data-name="Plantas decorativas 5" x1="163.6" y1="366.6" x2="422" y2="366.6" xlink:href="#Plantas_decorativas_5"/>
    <linearGradient id="Plantas_decorativas_53" data-name="Plantas decorativas 5" x1="227.4" y1="399.6" x2="422" y2="399.6" xlink:href="#Plantas_decorativas_5"/>
    <linearGradient id="Plantas_decorativas_54" data-name="Plantas decorativas 5" x1="316.3" y1="424.6" x2="422" y2="424.6" xlink:href="#Plantas_decorativas_5"/>
    <linearGradient id="Plantas_decorativas_55" data-name="Plantas decorativas 5" x1="163.6" y1="255.5" x2="376.2" y2="255.5" xlink:href="#Plantas_decorativas_5"/>
    <linearGradient id="Plantas_decorativas_56" data-name="Plantas decorativas 5" x1="163.6" y1="303" x2="278.3" y2="303" xlink:href="#Plantas_decorativas_5"/>
    <linearGradient id="Plantas_decorativas_57" data-name="Plantas decorativas 5" x1="163.6" y1="353" x2="222" y2="353" xlink:href="#Plantas_decorativas_5"/>
  </defs>
  <rect class="st0" width="2834.6" height="613"/>
  <g>
    <path class="st3" d="M1458.4,346.1c-8.9,4.3-21.1,8.5-36.8,12.2-14.5,3.1-21.7,4.8-21.7,4.8-11.3,3.1-19.5,7.2-24.6,12.2-4.3,6.9-6.6,13.9-6.6,20.8s2.9,17,8.5,22.6c5.6,5.1,13.8,7.6,24.6,7.6,17.6,0,31.4-5.1,41.5-15.1,10.1-10.1,15.1-23.9,15.1-41.5v-23.6h0ZM1473.5,462.1c-13.2,6.9-27.2,11.2-41.9,12.7-14.8,1.6-27.9,2.4-39.2,2.4-22.6,0-42.4-6.2-59.4-18.4-17-12.2-25.5-32.5-25.5-60.9s7.7-45.3,23.1-56.6c15.4-11.4,35-18.8,59-22.6,3.1,0,6.9-.5,11.3-1.5,4.4-.9,9.4-1.7,15.1-2.3,27.7-3.8,41.6-11.9,41.6-24.6s-4.9-15.5-14.7-18.4c-9.7-2.8-18.7-4.3-26.9-4.3s-16.7,1.3-23.6,3.8c-6.9,2.5-11.9,7.2-15.1,14.2h-63.2c2.5-19.6,11.3-35.6,26.4-48.2,17-14.5,41.2-21.7,72.6-21.7s61.7,6,79.3,18c18.2,12.6,27.3,30.2,27.3,52.8v85.9c0,25.1-4.5,44.8-13.7,59-9.1,14.2-20,24.4-32.5,30.7h0Z"/>
    <path class="st3" d="M869.1,395.1h47.2c-6.9,26.4-20.1,46.5-39.6,60.4-19.5,14.5-44.1,21.7-73.6,21.7s-63.9-11.7-84-35c-20.1-22.6-30.2-55.1-30.2-97.2s9.8-71.7,29.2-94.4c20.1-23.3,48.1-34.9,84-34.9s67,11.4,87.8,34c20.1,23.3,30.2,55.7,30.2,97.2v10.4c0,3.1-.3,5.4-1,6.6h-163.2c.6,19.6,5.3,34,14.2,43.4,8.1,10.1,20.4,15.1,36.8,15.1s19.8-2.2,27.3-6.6c1.9-.6,3.6-1.8,5.2-3.3,1.5-1.6,3.3-3.3,5.1-5.2.6-1.9,3-4.4,7.1-7.5,4.1-3.1,9.9-4.8,17.5-4.8h0ZM755.8,321.5h96.2c-1.3-17-5.6-29.6-13.2-37.8-8.2-8.8-19.8-13.2-35-13.2s-25.1,4.4-33.9,13.2c-8.9,8.9-13.5,21.4-14.2,37.8Z"/>
    <path class="st3" d="M968.9,477.2v-121.8c0-24.5,3.6-45.1,10.9-61.8,7.2-16.7,17.2-30,29.7-40.1,11.9-9.5,25.9-16.3,42-20.8,16.1-4.4,32.6-6.6,49.6-6.6h9.4v67h-21.7c-18.2,0-31.7,4.4-40.6,13.2-8.8,8.8-13.2,22.6-13.2,41.6v129.2h-66,0Z"/>
    <path class="st3" d="M1135.3,477.2v-121.8c0-24.5,3.6-45.1,10.9-61.8,7.2-16.7,17.2-30,29.7-40.1,11.9-9.5,25.9-16.3,42-20.8,16.1-4.4,32.6-6.6,49.6-6.6h9.4v67h-21.7c-18.2,0-31.7,4.4-40.6,13.2-8.8,8.8-13.2,22.6-13.2,41.6v129.2h-66,0Z"/>
    <path class="st3" d="M640,476.5c-20.8,1.3-43.2,1-67.5-1-24.2-1.9-36.3-17.3-36.3-46.2V151.9h34c8.1,0,15.4,3.1,21.7,9.4,6.3,6.3,9.4,13.8,9.4,22.6v42.5h38.7v13.2c0,9.4-3.1,17.1-9.4,23.1-6.3,6-13.9,8.9-22.7,8.9h-6.6v139.6c0,10.7,6.3,16.1,18.9,16.1h19.8v49h0Z"/>
    <g>
      <path class="st2" d="M1623.5,418.6c3.6,5.8,8.2,10.4,14,13.8,5.8,3.4,12.3,5.9,19.6,7.4,7.3,1.5,14.8,2.2,22.5,2.2s12.2-.4,18.7-1.3c6.5-.9,12.5-2.5,18.1-4.9,5.5-2.4,10-5.9,13.6-10.5,3.6-4.6,5.4-10.5,5.4-17.6s-3.7-17.2-11.1-22.3c-7.4-5-16.7-9.1-27.9-12.3-11.1-3.1-23.3-5.9-36.3-8.5-13.1-2.5-25.2-6.1-36.3-10.7-11.1-4.6-20.4-11.1-27.9-19.4-7.4-8.3-11.1-19.9-11.1-34.8s2.6-21.5,7.8-29.9c5.2-8.3,11.9-15.1,20.1-20.3,8.2-5.2,17.4-9.1,27.6-11.6,10.3-2.5,20.4-3.8,30.5-3.8s25.1,1.1,36.1,3.3c11,2.2,20.7,6.1,29.2,11.6,8.5,5.5,15.2,12.9,20.3,22.3,5,9.4,8,21,8.9,35h-37.9c-.6-7.4-2.5-13.6-5.8-18.5-3.3-4.9-7.4-8.8-12.5-11.8-5-3-10.6-5.1-16.7-6.5-6.1-1.3-12.3-2-18.5-2s-11.4.4-17.2,1.3c-5.8.9-11.1,2.5-15.8,4.7-4.8,2.2-8.6,5.2-11.6,8.9-3,3.7-4.5,8.5-4.5,14.5s2.3,12,6.9,16.3c4.6,4.3,10.5,7.9,17.6,10.7,7.1,2.8,15.1,5.2,24.1,7.1,8.9,1.9,17.8,3.9,26.7,6,9.5,2.1,18.8,4.6,27.9,7.6,9.1,3,17.1,6.9,24.1,11.8,7,4.9,12.6,11.1,16.9,18.5,4.3,7.4,6.5,16.6,6.5,27.6s-2.9,25.6-8.7,34.8c-5.8,9.2-13.4,16.6-22.7,22.3-9.4,5.7-19.9,9.6-31.6,11.8-11.7,2.2-23.4,3.3-35,3.3s-25-1.3-36.5-4c-11.6-2.7-21.8-7.1-30.7-13.1-8.9-6.1-16-14.1-21.4-24.1-5.3-9.9-8.3-22.1-8.9-36.3h37.9c.3,8.3,2.2,15.4,5.8,21.2Z"/>
      <path class="st2" d="M1794.2,307.6c4.7-14.7,11.9-27.5,21.4-38.3,9.5-10.8,21.2-19.4,35.2-25.6,14-6.2,30-9.4,48.1-9.4s34.5,3.1,48.4,9.4c13.8,6.2,25.5,14.8,35,25.6,9.5,10.9,16.6,23.6,21.4,38.3,4.8,14.7,7.1,30.5,7.1,47.5s-2.4,32.7-7.1,47.2c-4.8,14.6-11.9,27.3-21.4,38.1-9.5,10.8-21.2,19.3-35,25.4-13.8,6.1-29.9,9.1-48.4,9.1s-34.2-3.1-48.1-9.1c-14-6.1-25.7-14.6-35.2-25.4-9.5-10.8-16.6-23.5-21.4-38.1-4.8-14.6-7.1-30.3-7.1-47.2s2.4-32.8,7.1-47.5ZM1832.7,392.3c3.7,10.8,8.8,19.9,15.4,27.2,6.5,7.3,14.2,12.9,22.9,16.7,8.8,3.9,18.1,5.8,27.9,5.8s19.1-1.9,27.9-5.8c8.8-3.9,16.4-9.4,22.9-16.7,6.5-7.3,11.7-16.3,15.4-27.2,3.7-10.8,5.6-23.2,5.6-37.2s-1.9-26.4-5.6-37.2c-3.7-10.8-8.8-20-15.4-27.4-6.5-7.4-14.2-13.1-22.9-16.9-8.8-3.9-18.1-5.8-27.9-5.8s-19.1,1.9-27.9,5.8c-8.8,3.9-16.4,9.5-22.9,16.9-6.5,7.4-11.7,16.6-15.4,27.4-3.7,10.9-5.6,23.3-5.6,37.2s1.9,26.4,5.6,37.2Z"/>
      <path class="st2" d="M2175.2,279.8c-9.5-8-22.3-12-38.3-12s-25.1,2.5-34.3,7.6c-9.2,5.1-16.6,11.7-22.1,20.1-5.5,8.3-9.4,17.9-11.8,28.7-2.4,10.9-3.6,22.1-3.6,33.6s1.3,21.1,3.8,31.2c2.5,10.1,6.5,19.1,11.8,27,5.4,7.9,12.3,14.2,20.9,18.9,8.6,4.8,18.9,7.1,30.8,7.1,18.7,0,33.3-4.9,43.9-14.7,10.5-9.8,17-23.6,19.4-41.4h38.8c-4.2,28.5-14.8,50.5-31.9,66-17.1,15.5-40.3,23.2-69.7,23.2s-33.1-2.8-46.6-8.5c-13.5-5.6-24.8-13.7-33.9-24.1-9.1-10.4-15.9-22.8-20.5-37.2-4.6-14.4-6.9-30.2-6.9-47.5s2.2-33.3,6.7-48.4c4.5-15,11.2-28.1,20.3-39.2,9.1-11.1,20.4-19.9,34.1-26.3,13.7-6.4,29.6-9.6,47.7-9.6s25.3,1.6,36.8,4.7c11.4,3.1,21.5,8,30.3,14.5,8.8,6.5,16,14.8,21.6,24.7,5.6,10,9.2,21.8,10.7,35.4h-39.2c-3-14.5-9.2-25.8-18.7-33.9Z"/>
      <path class="st2" d="M2261.2,198.2v-46.4h37.9v46.4h-37.9ZM2299.1,239.7v230.4h-37.9v-230.4h37.9Z"/>
      <path class="st2" d="M2334.7,307.6c4.7-14.7,11.9-27.5,21.4-38.3,9.5-10.8,21.2-19.4,35.2-25.6,14-6.2,30-9.4,48.1-9.4s34.5,3.1,48.4,9.4c13.8,6.2,25.5,14.8,35,25.6,9.5,10.9,16.6,23.6,21.4,38.3,4.8,14.7,7.1,30.5,7.1,47.5s-2.4,32.7-7.1,47.2c-4.8,14.6-11.9,27.3-21.4,38.1-9.5,10.8-21.2,19.3-35,25.4-13.8,6.1-29.9,9.1-48.4,9.1s-34.2-3.1-48.1-9.1c-14-6.1-25.7-14.6-35.2-25.4-9.5-10.8-16.6-23.5-21.4-38.1-4.8-14.6-7.1-30.3-7.1-47.2s2.4-32.8,7.1-47.5ZM2373.3,392.3c3.7,10.8,8.8,19.9,15.4,27.2,6.5,7.3,14.2,12.9,22.9,16.7,8.8,3.9,18.1,5.8,27.9,5.8s19.1-1.9,27.9-5.8c8.8-3.9,16.4-9.4,22.9-16.7,6.5-7.3,11.7-16.3,15.4-27.2,3.7-10.8,5.6-23.2,5.6-37.2s-1.9-26.4-5.6-37.2c-3.7-10.8-8.8-20-15.4-27.4-6.5-7.4-14.2-13.1-22.9-16.9-8.8-3.9-18.1-5.8-27.9-5.8s-19.1,1.9-27.9,5.8c-8.8,3.9-16.4,9.5-22.9,16.9-6.5,7.4-11.7,16.6-15.4,27.4-3.7,10.9-5.6,23.3-5.6,37.2s1.9,26.4,5.6,37.2Z"/>
      <path class="st2" d="M2607,418.6c3.6,5.8,8.2,10.4,14,13.8,5.8,3.4,12.3,5.9,19.6,7.4,7.3,1.5,14.8,2.2,22.5,2.2s12.2-.4,18.7-1.3c6.5-.9,12.5-2.5,18.1-4.9,5.5-2.4,10-5.9,13.6-10.5,3.6-4.6,5.4-10.5,5.4-17.6s-3.7-17.2-11.1-22.3c-7.4-5-16.7-9.1-27.9-12.3-11.1-3.1-23.3-5.9-36.3-8.5-13.1-2.5-25.2-6.1-36.3-10.7-11.1-4.6-20.4-11.1-27.9-19.4-7.4-8.3-11.1-19.9-11.1-34.8s2.6-21.5,7.8-29.9c5.2-8.3,11.9-15.1,20.1-20.3,8.2-5.2,17.4-9.1,27.6-11.6,10.3-2.5,20.4-3.8,30.5-3.8s25.1,1.1,36.1,3.3c11,2.2,20.7,6.1,29.2,11.6,8.5,5.5,15.2,12.9,20.3,22.3,5,9.4,8,21,8.9,35h-37.9c-.6-7.4-2.5-13.6-5.8-18.5-3.3-4.9-7.4-8.8-12.5-11.8-5-3-10.6-5.1-16.7-6.5-6.1-1.3-12.3-2-18.5-2s-11.4.4-17.2,1.3c-5.8.9-11.1,2.5-15.8,4.7-4.8,2.2-8.6,5.2-11.6,8.9-3,3.7-4.5,8.5-4.5,14.5s2.3,12,6.9,16.3c4.6,4.3,10.5,7.9,17.6,10.7,7.1,2.8,15.1,5.2,24.1,7.1,8.9,1.9,17.8,3.9,26.7,6,9.5,2.1,18.8,4.6,27.9,7.6,9.1,3,17.1,6.9,24.1,11.8,7,4.9,12.6,11.1,16.9,18.5,4.3,7.4,6.5,16.6,6.5,27.6s-2.9,25.6-8.7,34.8c-5.8,9.2-13.4,16.6-22.7,22.3-9.4,5.7-19.9,9.6-31.6,11.8-11.7,2.2-23.4,3.3-35,3.3s-25-1.3-36.5-4c-11.6-2.7-21.8-7.1-30.7-13.1-8.9-6.1-16-14.1-21.4-24.1-5.3-9.9-8.3-22.1-8.9-36.3h37.9c.3,8.3,2.2,15.4,5.8,21.2Z"/>
    </g>
    <g>
      <path class="st1" d="M459.1,480.9H126.5V148.2h332.6v332.6ZM141.5,465.9h302.6V163.3H141.5v302.6Z"/>
      <path class="st7" d="M422,405.3v38.5h-105.7c16.9-9.1,68.6-35.5,105.7-38.5Z"/>
      <path class="st10" d="M422,289.4v45.5c-9.8,1.6-29.4,5.3-54.3,12.9-6.2,1.9-12.8,4.1-19.6,6.6-12,4.3-24.7,9.5-37.9,15.6-35,16.4-73,40-106.7,73.7h-40v-48.9s6.7-5.7,18.9-14.5c12.5-9.1,30.9-21.5,53.6-34.1,5.6-3.1,11.4-6.2,17.4-9.3h0c12.1-6.2,25.2-12.3,39.1-18,7.5-3.1,15.2-6,23.2-8.7,24.3-8.4,50.5-15.1,77.9-18.4,9.3-1.2,18.8-1.9,28.4-2.2Z"/>
      <path class="st5" d="M422,355.4v33.8c-2.6.5-6,1.1-10,1.9-25.4,5.4-75.9,19.4-125,52.7h-59.7c15.3-11.5,54.7-39.8,99.5-61.3,12.4-6,25.2-11.4,37.9-15.8,5.9-2,11.7-3.8,17.5-5.4,13.6-3.6,27-5.8,39.7-6Z"/>
      <path class="st6" d="M422,405.3v38.5h-105.7c16.9-9.1,68.6-35.5,105.7-38.5Z"/>
      <path class="st9" d="M376.2,280.3c-26.7,4.7-52,12.3-75.4,21.3-63-34.4-121.7-44.8-137.3-47.1v-45.1c86.4,2,164.8,40.9,212.7,71Z"/>
      <path class="st4" d="M278.3,311c-14.1,6.3-27.3,13-39.3,19.6-35.6-14.6-65-20.2-75.4-21.9v-33.3c36.1-.5,78.2,16.2,114.7,35.6Z"/>
      <path class="st8" d="M222,340.3c-26.5,15.8-45.4,30.1-53.7,36.7-3.1,2.5-4.8,3.9-4.8,3.9v-55.8c17.6.8,39,7.4,58.4,15.2Z"/>
    </g>
  </g>
</svg>