<?xml version="1.0" encoding="UTF-8"?>
<svg id="Capa_1" xmlns="http://www.w3.org/2000/svg" version="1.1" viewBox="0 0 645.8 614.7">
  <!-- Generator: Adobe Illustrator 29.0.1, SVG Export Plug-In . SVG Version: 2.1.0 Build 192)  -->
  <defs>
    <style>
      .st0 {
        fill-rule: evenodd;
      }

      .st0, .st1 {
        fill: #fff;
      }

      .st2 {
        fill: #9d332b;
      }

      .st3 {
        fill: #cc3829;
      }

      .st4 {
        fill: #d26645;
      }

      .st5 {
        fill: #222c56;
      }
    </style>
  </defs>
  <rect class="st5" width="645.8" height="614.7"/>
  <g>
    <polygon class="st1" points="608 307.4 322.9 592.4 37.8 307.4 322.9 22.2 608 307.4"/>
    <path class="st5" d="M230.5,258.2l16.4,47.1h-32.9l16.5-47.1ZM308.8,250.7h8.6c9.6,0,16,1.4,19.2,4.3,3.1,2.8,4.7,6.7,4.7,11.5s-1.9,10.5-5.8,15c-3.9,4.4-10.9,6.6-21,6.6h-5.7v-37.3ZM409,258.2l16.4,47.1h-32.9l16.5-47.1ZM200.3,344.8l8.3-23.8h43.8l8.4,23.8h48v-40.5h13.5l27.6,40.5h28.9l8.3-23.8h43.9l8.3,23.8h25l-38.5-110.3h-24.4l-34.3,98-24.1-35.1c7.3-3.2,12.9-7.9,16.9-14,4-6.1,6-12.6,6-19.6s-1.3-11-4.1-15.6c-2.8-4.6-6.5-8-11.2-10.3-4.7-2.2-11.6-3.4-20.6-3.4h-44.2v110.1l-38.4-110.1h-24.4l-38.6,110.3h16.1Z"/>
    <polygon class="st3" points="53.5 307.5 323.2 577.2 323.2 496.6 134.2 307.5 53.5 307.5"/>
    <polygon class="st4" points="323.2 37.7 53.5 307.5 134.2 307.5 323.2 118.4 323.2 37.7"/>
    <polygon class="st2" points="323.2 577.2 592.9 307.5 512.2 307.5 323.2 496.6 323.2 577.2"/>
    <polygon class="st3" points="323.2 118.4 512.2 307.5 592.9 307.5 323.2 37.7 323.2 118.4"/>
    <g>
      <path class="st1" d="M443.1,530.8h2.6c0,0,.2,0,.3,0,.7,0,1.5.1,2.2.3,5,.9,9.3,3.3,12.7,7.1,3,3.4,4.7,7.3,5.3,11.8,0,.5.1,1,.2,1.5v2.6c0,.1,0,.2,0,.3,0,.7-.1,1.4-.3,2.2-1,5.3-3.5,9.7-7.6,13.1-3.3,2.7-7.1,4.4-11.3,4.9-.5,0-1,.1-1.5.2h-2.6c-.1,0-.2,0-.3,0-.7,0-1.5-.1-2.2-.3-5-.9-9.3-3.3-12.7-7.1-3-3.4-4.7-7.3-5.3-11.8,0-.5-.1-1-.2-1.5v-2.6c0-.1,0-.2,0-.3,0-.7.1-1.4.3-2.2,1-5.3,3.5-9.7,7.6-13.1,3.3-2.7,7.1-4.4,11.3-4.9.5,0,1-.1,1.5-.2ZM444.4,535.3c-9.7.1-17.5,7.7-17.5,17.5,0,9.8,7.7,17.5,17.5,17.5,9.7,0,17.5-7.7,17.5-17.5,0-9.8-7.7-17.4-17.5-17.6Z"/>
      <path class="st0" d="M440.7,555.1v8.7h-5.9v-23h.3c2.9,0,5.8,0,8.6,0,1.7,0,3.5.1,5.1.7,2.3.8,3.6,2.5,3.7,5,0,1.2,0,2.3-.5,3.4-.6,1.4-1.7,2.2-3,2.8-.2.1-.5.2-.7.3h0c1.7.5,2.7,1.8,3.5,3.3,1.3,2.4,2.5,4.9,3.7,7.4,0,0,0,0,0,0-.1,0-.2,0-.3,0-1.9,0-3.8,0-5.7,0-.3,0-.4,0-.5-.3-.9-1.9-1.8-3.7-2.8-5.6-.2-.4-.4-.8-.7-1.2-.6-1-1.5-1.5-2.7-1.6-.7,0-1.5,0-2.3,0ZM440.7,551c1.3,0,2.5,0,3.7-.1.9,0,1.6-.5,2-1.4.2-.6.3-1.2.2-1.8-.1-1.5-.8-2.3-2.2-2.4-1.2-.1-2.4,0-3.7-.1,0,0,0,0,0,0v5.9Z"/>
    </g>
  </g>
</svg>