<?xml version="1.0" encoding="UTF-8"?>
<svg id="Capa_1" xmlns="http://www.w3.org/2000/svg" version="1.1" viewBox="0 0 1672.3 614.7">
  <!-- Generator: Adobe Illustrator 29.0.1, SVG Export Plug-In . SVG Version: 2.1.0 Build 192)  -->
  <defs>
    <style>
      .st0 {
        fill-rule: evenodd;
      }

      .st0, .st1 {
        fill: #d0d76c;
      }
    </style>
  </defs>
  <path class="st1" d="M943.9,190.8c-13.9,6.1-28.8,10.2-44.6,12,16.1-9.4,28.3-24.3,34.2-42.2-15,8.8-31.6,15.1-49.3,18.5-14.1-14.8-34.2-24-56.6-24-42.7,0-77.4,34.1-77.4,76.2s.7,11.8,2,17.4c-64.4-3.2-121.5-33.6-159.7-79.7-6.7,11.3-10.5,24.4-10.5,38.4,0,26.5,13.7,49.7,34.4,63.4-12.6-.3-24.5-3.8-35-9.5v.9c0,9.8,2,19,5.3,27.6,9.6,23.9,30.8,42.1,57,47.2-6.5,1.7-13.3,2.7-20.5,2.7s-9.8-.5-14.6-1.4c9.8,30.3,38.4,52.3,72.4,53-26.6,20.4-60,32.6-96.3,32.6s-12.5-.4-18.5-1.1c34.3,21.7,75,34.3,118.8,34.3,121.2,0,195.6-84,215.3-171,3.5-15.4,5.3-30.8,5.3-46.1s0-6.5-.3-9.7c15.2-10.8,28.3-24.2,38.7-39.6"/>
  <path class="st1" d="M1347.5,411.1c-57.9,0-104.9-47.2-104.9-105s47-105.1,104.9-105.1,105,47.1,105,105.1-47,105-105,105M1347.5,236.3c-38.5,0-69.9,31.4-69.9,69.9s31.4,69.8,69.9,69.8,69.9-31.2,69.9-69.8-31.3-69.9-69.9-69.9"/>
  <path class="st1" d="M1477.7,192.3c0,13.9-11.3,25.1-25.2,25.1s-25.2-11.2-25.2-25.1,11.4-25.3,25.2-25.3,25.2,11.3,25.2,25.3"/>
  <path class="st1" d="M1435.8,511.2h-176.6c-64.4,0-116.8-52.4-116.8-116.8v-176.6c0-64.4,52.4-116.7,116.8-116.7h176.6c64.4,0,116.8,52.3,116.8,116.7v176.6c0,64.3-52.3,116.8-116.8,116.8M1259.2,136.2c-45,0-81.6,36.6-81.6,81.6v176.6c0,44.9,36.6,81.6,81.6,81.6h176.6c45,0,81.6-36.7,81.6-81.6v-176.6c0-45-36.6-81.6-81.6-81.6h-176.6Z"/>
  <path class="st0" d="M249.3,230.2v-30.4c0-14.6,9.8-18.2,16.8-18.2h42.5v-65.1h-58.7c-65.1,0-79.6,48.2-79.6,79.4v34.2h-37.9v76h38.1v189.5h75.9v-189.5h56.2l2.5-29.9,4.5-46.1h-60.2Z"/>
</svg>